<?xml version="1.0" encoding="utf-8"?>
<!-- Generator: Adobe Illustrator 18.1.1, SVG Export Plug-In . SVG Version: 6.00 Build 0)  -->
<svg version="1.1" id="Layer_1" xmlns="http://www.w3.org/2000/svg" xmlns:xlink="http://www.w3.org/1999/xlink" x="0px" y="0px"
	 viewBox="0 0 750 150" enable-background="new 0 0 750 150" xml:space="preserve">
<g>
	<path fill="#FFFFFF" d="M56.4,122.7c0.1,2.3-1.6,4.4-4,4.7c-3,0.4-5.9,0.7-8.9,1.1c-1.1,0.3-2.3,0.7-3.4,0.9
		c-1.9,0.1-3.7,0.3-5.6,0.6c-1.3,0.1-2.6,0.3-3.9,0.6c-0.3,0.1-0.6,0.1-0.7,0.1c-2.9,0.4-6,1-8.7,0.7c-2.9-0.3-3.7-4.1-0.7-5
		c0.4-0.1,0.9-0.3,1.3-0.4c0.3-0.6,1-1.1,2-1.1c0.6,0,1-0.1,1.6-0.3v-0.1c0-2.6,0.4-5.2,0.6-7.7c0.6-6,1-11.9,1.3-17.7
		c0.3-5,0.1-10,0.1-15c0.1-3.9,0.3-7.9,0.4-11.7c0-3.1,0-6.3,0.1-9.4c0.3-4.9,0.6-9.6,0.9-14.5c0-2.9,0-5.7,0.1-8.6
		c0.1-5.6,0.4-11.2,0.6-16.7c-1.6-0.1-3.1-0.1-4.7-0.1c-2.9-0.1-2.9-4.4,0-4.4c4.4-0.1,8.9-0.3,13.3-0.3c0.4,0,0.7,0.1,1,0.3
		c0.6,0,1.3,0,1.9,0c3,0,3,4.9,0,4.9c-1.3,0-2.4-0.1-3.6-0.1c0,1,0,2.1,0,3.1c-0.1,6-0.1,12-0.3,18c0,1.6-0.1,3.1-0.1,4.7
		c0,4.3,0,8.7-0.1,13.2C36.6,65,36.3,68,36.2,71c-0.1,1-0.1,2.1-0.1,3.1c0.1,8.3,0,16.7-0.1,25c-0.1,2.6-0.6,5.3-0.7,7.9
		c-0.4,4-0.9,8-1.3,12c-0.1,1.1,0.1,2.3,0.3,3.9c1.9-0.3,3.9-0.6,5.9-0.9c3.3-0.7,6.7-1.6,10-2c0.3-0.1,0.4-0.1,0.6-0.1
		c-0.3-2.1-0.4-4.4,0.6-6.4c0.1-0.1,0.3-0.3,0.4-0.4c0.1-2.1,3.4-3.3,4.4-1.1C57.7,115.4,57.1,119.1,56.4,122.7z"/>
	<path fill="#FFFFFF" d="M84.9,27c-0.6,0-1.1,0-1.7,0c-0.3,2.1-0.3,4.4-0.4,6.7c-0.1,3.3-0.3,6.7-0.6,10.2c-0.1,2.6-0.4,5-0.7,7.6
		c-0.3,3.7-0.4,7.4-0.7,11.2c-0.3,4-0.7,7.9-0.9,11.9c-0.1,4.1-0.1,8.3-0.3,12.4c0,2.7-0.3,5.4-0.4,8.2c0,1.1,0.1,2.1,0.1,3.1
		c0,4.4-0.1,9,0.1,13.4c0.1,2.9-0.3,5.6-0.6,8.4c-0.1,0.1-0.1,0.3-0.1,0.6c0.6,0,1,0,1.4,0.1c2.6,0.3,3.4,3.3,2.1,4.7
		c-0.1,1.3-1.1,2.4-2.7,2.7c-4.1,0.4-8.3,0.4-12.4,0.3c-2.4,0-3.6-3-2.4-4.6c0-0.1,0-0.3,0-0.6c0-1.6,1.3-2.7,2.9-2.7
		c0.4-0.1,0.9-0.1,1.4-0.1c0-0.3,0-0.6,0-0.9c0.6-5.9,0.7-11.9,0.6-17.9c-0.1-6.6-0.1-13.2,0.7-19.9c0.4-3.3,0.1-6.7,0.4-10.2
		c0.3-4,0.7-7.9,1-11.9c0.1-1,0.1-2.1,0.1-3.3c0.3-1.9,0.6-3.9,0.7-5.7c0.3-4.7,0.4-9.3,0.9-13.9c0.4-3.4,0.9-6.7,1.3-10
		c-0.9,0-1.7,0-2.7,0c-3.7,0-3.7-5.9,0-5.9c4.3,0.1,8.6,0.1,12.9,0.3C88.4,21.4,88.4,27,84.9,27z"/>
	<path fill="#FFFFFF" d="M128.1,122.7c0.1,2.3-1.6,4.4-4,4.7c-3,0.4-5.9,0.7-8.9,1.1c-1.1,0.3-2.3,0.7-3.4,0.9
		c-1.9,0.1-3.7,0.3-5.6,0.6c-1.3,0.1-2.6,0.3-3.9,0.6c-0.3,0.1-0.6,0.1-0.7,0.1c-2.9,0.4-6,1-8.7,0.7c-2.9-0.3-3.7-4.1-0.7-5
		c0.4-0.1,0.9-0.3,1.3-0.4c0.3-0.6,1-1.1,2-1.1c0.6,0,1-0.1,1.6-0.3v-0.1c0-2.6,0.4-5.2,0.6-7.7c0.6-6,1-11.9,1.3-17.7
		c0.3-5,0.1-10,0.1-15c0.1-3.9,0.3-7.9,0.4-11.7c0-3.1,0-6.3,0.1-9.4c0.3-4.9,0.6-9.6,0.9-14.5c0-2.9,0-5.7,0.1-8.6
		c0.1-5.6,0.4-11.2,0.6-16.7c-1.6-0.1-3.1-0.1-4.7-0.1c-2.9-0.1-2.9-4.4,0-4.4c4.4-0.1,8.9-0.3,13.3-0.3c0.4,0,0.7,0.1,1,0.3
		c0.6,0,1.3,0,1.9,0c3,0,3,4.9,0,4.9c-1.3,0-2.4-0.1-3.6-0.1c0,1,0,2.1,0,3.1c-0.1,6-0.1,12-0.3,18c0,1.6-0.1,3.1-0.1,4.7
		c0,4.3,0,8.7-0.1,13.2c-0.1,2.9-0.4,5.9-0.6,8.9c-0.1,1-0.1,2.1-0.1,3.1c0.1,8.3,0,16.7-0.1,25c-0.1,2.6-0.6,5.3-0.7,7.9
		c-0.4,4-0.9,8-1.3,12c-0.1,1.1,0.1,2.3,0.3,3.9c1.9-0.3,3.9-0.6,5.9-0.9c3.3-0.7,6.7-1.6,10-2c0.3-0.1,0.4-0.1,0.6-0.1
		c-0.3-2.1-0.4-4.4,0.6-6.4c0.1-0.1,0.3-0.3,0.4-0.4c0.1-2.1,3.4-3.3,4.4-1.1C129.3,115.4,128.8,119.1,128.1,122.7z"/>
	<path fill="#FFFFFF" d="M172.1,24c-0.7,0-1.4,0-2.3,0c0,3.6-2.4,8.4-4,12c-0.3,0.4-0.4,1-0.7,1.4c0,0.1,0,0.1,0,0.1
		c-0.6,1-1.1,1.9-1.4,2.9c-1.6,3.9-3.1,7.7-4.6,11.6c-2,5.3-4.6,10.2-7.6,14.9c-0.9,1.3-1,3.3-0.9,4.9c0.4,7.2,0.3,14.5,0.1,21.7
		c0,3.7-0.1,7.6-0.3,11.3c-0.1,6.4-0.3,12.7-0.4,19.2c0.7-0.1,1.6-0.1,2.4-0.3c3.1-0.4,3.9,5.2,0.7,5.6c-0.4,0-0.9,0.1-1.3,0.1
		c-0.1,0-0.3,0.1-0.4,0.1c-4.1,0.9-8.6,1-12.9,0.6c-3.6-0.3-3.7-5.9,0-5.7c1.1,0,2.3,0,3.3,0c0-0.3,0-0.6,0.1-0.9
		c0.1-2.1,0.3-4.3,0.4-6.4c0.1-4.3,0.4-8.4,0.7-12.7c0.1-4.1,0.1-8.3,0.3-12.4c0-4.9,0.1-9.6,0.1-14.5c-0.1-3-0.3-6-0.4-9.2
		c0-0.4-0.1-1-0.3-1.4c-0.4-0.7-0.4-1.1,0-1.7c0.7-1,0.3-1.7-0.4-2.6c-0.6-0.9-1.4-1.9-1.7-3c-1-3.4-2.3-6.7-4-9.9
		c-0.7-1.6-1.1-3.3-1.9-4.9c-0.6-1.4-1-2.9-1.9-4.1c-1.7-2.7-1.9-5.9-2.7-8.9c-0.6-2.3-0.9-4.7-1.3-7c-0.1,0-0.4,0-0.7,0
		c-3.7-0.1-3.7-5.9,0-5.9c2.6-0.1,5.2-0.3,7.7-0.1c3.1-0.1,3.9,5,0.7,5.4h-0.1c-0.1,0.1-0.3,0.1-0.6,0.1c0,0,0,0-0.1,0
		c0.3,0.6,0.4,1,0.6,1.6c0.6,3,1,6,1.7,9c0.4,1.7,1,3.6,1.9,5.3c1.9,4.3,3.9,8.4,5.9,12.7c0.6,1.1,1.4,2.3,2.3,3.9
		c0.7-1.7,1.4-3.1,2.1-4.6c2.1-5.3,4.3-10.7,6.6-15.9c1.3-2.9,2.1-5.7,2.7-8.7c0.3-1.3,0.7-2.6,1-3.9c-1.3,0-2.4-0.1-3.7-0.1
		c-3.6,0-3.6-5.7,0-5.6c5,0.1,10.2,0.3,15.2,0.4C175.7,18.7,175.7,24,172.1,24z"/>
	<path fill="#FFFFFF" d="M202.7,21c3.9,3.1,5.4,8.9,3.6,13.7c-0.6,1.9-1.7,3.4-2.6,5.2c-1,1.9-2.4,3-4.4,2.9
		c-2.1-0.1-4.1-0.6-6.2-1.1c-0.6-0.1-1-1.1-1.4-1.9c-0.3-0.4-0.3-1.1-0.4-1.7c-0.4-1.3-0.1-2.4,0.7-3.4c1.9-2.3,4.1-3.7,7.2-4
		c0.1-3.1-1.7-5.2-3.9-7.2c1.3-1.4,2.4-2.7,3.7-4.1C200.5,19.8,201.7,20.1,202.7,21z"/>
	<path fill="#FFFFFF" d="M252.8,106.4c-0.6,2.3-0.4,4.9-1.3,7c-1.7,4.1-3.7,8.2-6.7,11.4c-1.6,1.6-3.1,3.3-5.6,3.7c-1,0.3-2,1-3,1.4
		c-1.3,0.4-2.7,0.9-4,1c-2.1,0.3-4.1,0.3-6.2,1.4c-0.4,0.3-3.6-0.4-4.3-0.9c-2.7-1.4-5-3.3-7.4-5c-2.7-1.9-4.6-4.1-6.3-6.7
		c-1.9-3-3.4-6.2-3.6-9.9c0-2.1-0.3-4.4,0-6.6c0.3-1.6,1-3.1,2-4.6c1.1-2,2.7-3.9,4.3-5.6c0.6-0.7,1.1-1.4,2-1.9
		c-0.7-0.9-1.3-1.7-1.9-2.6c-2-3.1,2.3-5.9,4.9-3.7c3,2.6,6.6,5.2,9.2,8.2c2.1,2.3-0.7,6.3-3.4,4.4c-0.4-0.3-0.9-0.6-1.3-1
		c-0.3,0.1-0.6,0.1-0.9,0.3c-1,1.4-2.1,2.9-3.1,4.3c-3.4,4.1-3.3,8.7-1.7,13.4c0.9,2.6,2.1,4.7,3.7,6.9c1.1,1.9,2.7,3.6,5.2,4
		c0.9,0.1,1.9,0.3,2.6,0c2.6-0.9,5.3-1.7,7.7-3c2.6-1.1,4.1-3.6,5.7-5.9c2.9-4.4,4.6-9.4,4.6-14.7c0-4.1-0.7-8.3-1.4-12.3
		c-0.4-2.1-1.9-4.1-3-6.3c-1.6-3-2.7-6.3-4.7-9.3c-1.6-2.3-3.1-4.7-5.3-6.7c-2-2.1-3.4-4.9-5.2-7.2c-2.6-3.6-4.4-7.4-6.4-11.2
		c-0.6-1-1-2.1-1.1-3.1c-0.3-3.4-0.7-6.7-0.7-10c0-3.9,2.1-6.7,4.9-9.2c0.9-0.9,1.7-1.7,2.7-2.4c2.6-1.9,5.2-3.9,8-5.3
		c1.6-0.9,3.7-0.7,5.6,0.1c0.6,0.3,1.1,0.7,1.9,0.7c3.6-0.1,6.3,2,8.4,4.3c2.7,3,4.9,6.7,4.9,11.2c-0.3,1.9-0.6,3.7-0.7,5.6
		c-0.1,0.9-0.3,1.7-0.4,2.6c-0.1,0.7-0.3,1.4-0.6,2c-0.1,0-0.3,0.1-0.3,0.3c0.1,0.4,0.3,0.7,0.3,1.1c0.1,0.7,0,1.4-0.3,2
		c0.7,2.1-2.1,4.3-4.3,3.1c0,0,0,0,0-0.1c-0.3,0-0.4-0.1-0.6-0.3c0-0.1,0-0.1-0.1-0.1c-3.4-2.9-6.2-7.2-8.3-10.9
		c-1.4-2.7,1.6-5.9,4.1-4.1c0.4,0.1,0.9,0.4,1.3,0.7c0.3-1,0.4-2,0.6-3c0-1.1-0.1-2.3-0.1-3.6c0-2.3-1.7-3.6-3.4-4.9
		c-1-0.7-2-0.3-2.9,0.3c-1.6,1.1-3.6,1.6-4.6,3.4c-0.1,0.3-0.7,0.4-1,0.6c-3.9,2.4-7,8-5.4,12.9c0.4,1.6,0.3,3.3,0.6,4.9
		c0.9,3.4,3,6.2,4.9,9c0.7,1.3,1.6,2.6,2.4,3.7c0.6,0.9,1.3,1.7,2,2.6c0.3,0.3,0.6,0.6,0.9,0.9c2.3,3.3,4.4,6.9,7,10
		c2.7,3.6,4.4,7.6,6,11.9c0.7,2,2,4,2.4,6.2C253,96.6,254.3,101.4,252.8,106.4z"/>
	<path fill="#FFFFFF" d="M354,122.7c0.1,2.3-1.6,4.4-4,4.7c-3,0.4-5.9,0.7-8.9,1.1c-1.1,0.3-2.3,0.7-3.4,0.9
		c-1.9,0.1-3.7,0.3-5.6,0.6c-1.3,0.1-2.6,0.3-3.9,0.6c-0.3,0.1-0.6,0.1-0.7,0.1c-2.9,0.4-6,1-8.7,0.7c-2.9-0.3-3.7-4.1-0.7-5
		c0.4-0.1,0.9-0.3,1.3-0.4c0.3-0.6,1-1.1,2-1.1c0.6,0,1-0.1,1.6-0.3v-0.1c0-2.6,0.4-5.2,0.6-7.7c0.6-6,1-11.9,1.3-17.7
		c0.3-5,0.1-10,0.1-15c0.1-3.9,0.3-7.9,0.4-11.7c0-3.1,0-6.3,0.1-9.4c0.3-4.9,0.6-9.6,0.9-14.5c0-2.9,0-5.7,0.1-8.6
		c0.1-5.6,0.4-11.2,0.6-16.7c-1.6-0.1-3.1-0.1-4.7-0.1c-2.9-0.1-2.9-4.4,0-4.4c4.4-0.1,8.9-0.3,13.3-0.3c0.4,0,0.7,0.1,1,0.3
		c0.6,0,1.3,0,1.9,0c3,0,3,4.9,0,4.9c-1.3,0-2.4-0.1-3.6-0.1c0,1,0,2.1,0,3.1c-0.1,6-0.1,12-0.3,18c0,1.6-0.1,3.1-0.1,4.7
		c0,4.3,0,8.7-0.1,13.2c-0.1,2.9-0.4,5.9-0.6,8.9c-0.1,1-0.1,2.1-0.1,3.1c0.1,8.3,0,16.7-0.1,25c-0.1,2.6-0.6,5.3-0.7,7.9
		c-0.4,4-0.9,8-1.3,12c-0.1,1.1,0.1,2.3,0.3,3.9c1.9-0.3,3.9-0.6,5.9-0.9c3.3-0.7,6.7-1.6,10-2c0.3-0.1,0.4-0.1,0.6-0.1
		c-0.3-2.1-0.4-4.4,0.6-6.4c0.1-0.1,0.3-0.3,0.4-0.4c0.1-2.1,3.4-3.3,4.4-1.1C355.3,115.4,354.7,119.1,354,122.7z"/>
	<path fill="#FFFFFF" d="M404.6,27.5c0.3,2.4,0.1,5-1.3,7.2c-0.3,0.6-0.9,1-1.4,1.1c-1.7,1-4.1-0.4-4.1-2.4c0-1.6,0.1-3.1,0.4-4.6
		c-1.9-0.3-3.9-0.3-5.7-0.4c-4.9-0.3-9.7-0.4-14.7-0.7c-0.9-0.1-1.6-0.1-1.6,0.9c0.3,1.3,0.7,2.6,0.9,3.9c0,5.3,0.1,10.7,0,16
		c-0.1,5-0.6,10-0.9,15c0,1,0,2,0,3.3c0.9,0,1.3,0,1.9,0c3-0.1,5.9-0.4,8.9-0.6c0.4-0.1,0.7-0.1,1,0c0-0.1,0-0.1,0-0.1
		c0-2.3,1.6-4,3.7-4.6h0.1c0.4-0.9,1.9-0.9,2.3,0c0.1,0.1,0.1,0.4,0.3,0.7c0.6,0.6,0.9,1.3,1,2c0.6,5.2-0.3,10.2-2.4,14.7
		c-1.1,2.4-5.3,1.3-5.2-1.4c0.1-1,0.3-1.9,0.4-2.9c-0.1-0.4-0.3-0.9-0.3-1.1c-3,0.3-6,0.7-9.2,0.1c-0.6-0.1-1.3,0-2.1,0
		c-0.1,1-0.3,2-0.3,3.1c0,10.2,0,20.3-0.1,30.5c0,4-0.3,8-0.4,12c0,0.6,0,1.1,0,2c2.6,0,4.9-0.4,7.2-0.7c3.4-0.6,6.9-1.4,10.6-1
		c-0.1-0.6-0.1-1.1,0-1.6c0-0.6,0-1,0.1-1.6c0-0.1-0.1-0.1-0.1-0.3s-0.1-0.4-0.1-0.6c-0.4-1.6,0.7-2.9,2.1-2.9c0.1,0,0.3,0,0.4,0
		c0.7-0.4,1.7-0.3,2.3,0.6c1.7,1,2.1,3.1,2.1,5.6c0,0.9-0.1,2.6-0.6,3.9c0.4,0.9,0.4,1.7-0.4,2.4c-1.3,1.1-2.9,1.4-4.6,1.4
		c-1.9,0.1-3.6,0-5.3,0.1c-1.9,0.1-3.7,0.7-5.6,1c-2.6,0.3-5.3,0.4-8,0.7c-1.3,0-2.7-0.3-4-0.7c-1.3,0.1-2.6,0.3-3.9,0.4
		c-1.9,0-3.7-0.3-5.6-0.6c-3.9-0.4-4-5.7,0-6c1.4-0.1,2.9-0.3,4.3-0.3c-0.1-2,0.1-4,0.3-6c0.3-3.1,0.6-6.2,0.7-9.3
		c0.1-3.6,0.1-7.2,0.3-10.9c0-1.9,0.1-3.7,0.1-5.6c0.1-4.4,0.3-9,0.4-13.6c0.1-5.2,0.1-10.4,0.4-15.6c0.4-5.7,1.1-11.3,1.6-17
		c0.1-2.4,0.1-4.9,0.1-7.3c0.1-3,0-6.2,0.1-9.2c0-0.4,0-0.9-0.1-1.1c-1.7,0.3-3.4,0.4-5.2,0.1c-1.1-0.1-2-1.4-2-2.6
		c0-1.3,0.9-2.1,2-2.6c1.1-0.4,2.3-0.3,3.4-0.3v-0.1c0.4-0.1,1.1-0.1,1.7,0c0.4,0,0.9,0,1.3,0c0.6,0,1,0,1.4,0.3
		c1.9,0.3,3.9,0.4,5.9,0.6c4.1,0.3,8.3,0.4,12.4,0.6c0.9,0,1.6,0,2.4,0c2.6-0.3,5,0.1,7.3,1.4c1.1,0,2.3,0.6,2.6,1.9
		C404.9,26,405.2,26.8,404.6,27.5z"/>
	<path fill="#FFFFFF" d="M475.2,27c-1.3,0-2.7,0-4.1,0.1c0.1,0.3,0.1,0.7,0.1,1c0.1,3.3,0.3,6.4,0.6,9.7c0.3,3.6,0.1,7,0.1,10.6
		c-0.1,4.1,0.1,8.3,0.1,12.3c0,3-0.3,5.9-0.3,8.7c-0.1,3.7-0.3,7.3-0.3,10.9c0,3.7,0,7.3-0.1,10.9c-0.4,5.6-0.6,11-0.1,16.6
		c0.3,3.6,0.3,7,0.4,10.6c0,1.1,0.3,2.3,0.4,3.4c0.4,0,0.9,0,1.3,0.1c3.9,0.3,4.1,6.2,0,6.2c-1.1,0-2.3,0.1-3.6,0.1
		c-0.3,0.1-0.6,0.1-0.7,0.1c-0.1-0.1-0.1-0.1-0.3-0.1c-3.9,0.1-7.7,0.3-11.4-0.3c-2.6-0.4-2.7-4.4-0.7-5.4c1.3-0.9,3.1-1.1,4.9-1.1
		c-0.1-5.2,0-10.3-0.3-15.3c-0.3-4.6-0.1-9.2,0-13.6c0.1-3.9,0.1-7.6,0.1-11.4c0.3-5.4,0.4-11,0.6-16.5c0.1-2.9,0-5.7,0-8.6
		c0.1-4.9,0.3-9.9,0.3-14.7c0-0.4,0.1-0.7,0.1-1.1c-0.3,0-0.4,0-0.6-0.1c-0.7,2.9-1.6,5.7-2.1,8.7c-0.6,2.7-1,5.6-1.7,8.4
		c-0.4,2.3-0.9,4.6-1.9,6.9c-0.9,2.1-1.1,4.7-1.7,7c-0.7,2.6-1.3,5.3-2,7.9c-0.1,0.6-0.4,1-0.3,1.6c0.4,2.3-1.1,3.3-2.4,4.7
		c-0.3,0.1-0.6,0.4-0.9,0.6c-1.9,2-4,2-6.2,0.1c-0.6-0.6-1.1-1.1-1.9-1.6c-0.9-0.7-1-1.6-1.3-2.6c-0.7-2.6-1.6-5.2-2.4-7.7
		c-1.3-3.7-2.6-7.6-4-11.3c-1.3-3.4-2.9-6.9-4.1-10.3c-0.9-2.1-1.6-4.4-2.3-6.7c0-0.3-0.1-0.6-0.1-0.9c-0.1,0-0.3,0-0.4,0
		c0.1,1.7,0.1,3.3,0.3,5c0.7,5,0.3,10.2,0.1,15.2c-0.1,5-0.1,10-0.1,14.9c0,3.3,0,6.4,0.1,9.7c0,2.4,0.3,4.9,0.3,7.3
		c0.1,4.1,0.1,8.3,0.1,12.4c0.1,2.6,0.3,5,0.4,7.4c0.1,1.3,0.1,2.7,0.3,4c0.7,0,1.6,0,2.4,0c3.9-0.1,3.9,5.7,0,6
		c-1.6,0-3.3,0.1-5,0.3c-0.3,0.1-0.6,0.3-1,0.3c-0.1,0-0.4-0.1-0.6-0.1c-2.3,0.1-4.6,0.1-6.7,0c-0.9-0.1-1.4-0.4-1.9-1
		c-0.7-0.3-1.1-0.7-1.4-1.1c-0.4-0.4-0.6-1-0.6-1.6c-0.1-1.6,0.9-3.3,2.9-3c0.4,0,1,0,1.4,0c-0.3-5.6-0.1-11.2-0.3-16.6
		c-0.1-5.2-0.3-10.3-0.4-15.5c-0.1-6.9-0.4-13.9-0.4-20.7c0-5.7,0.4-11.3,0.3-17c-0.1-6.2-0.7-12.3-1-18.6c0-1.7-0.1-3.6-0.1-5.3
		c-0.7,0-1.4,0-2.1,0c-0.1,0-0.1,0-0.3,0c-1.4,0-3,0-4.4,0c-3,0-2.9-4.3,0-4.6c2.3-0.1,4.7-0.3,7-0.4c0,0,0,0,0.1-0.1
		c0.6,0,1.1,0,1.9,0.1c0.1-0.1,0.3-0.1,0.6-0.1s0.6,0,0.9,0.1c1.7,0,3.4,0.1,5.2,0.3c1.3,0,3.1,1.9,3.6,3.1c1.7,4.4,3.3,9,5.2,13.4
		c1.7,4,3.9,7.9,5,12.2c0.4,1.3,1.1,2.6,1.6,3.9c0.9,1.9,1.6,3.9,2.4,5.9c0.9,2.4,1.9,5,3,7.9c0.4-1.6,0.9-2.9,1.1-4
		c0.7-2.9,1.6-5.7,2.3-8.6c0.1-1,0.4-2.1,0.6-3.1c0.9-4.7,1.7-9.3,2.9-13.9c0.9-3.9,2-7.4,3-11.3c0.3-1,0.3-2.3,0.4-3.4
		c0.3-2,1.1-2.9,3.3-2.9c2.1,0,4.3,0,6.4,0.1c0.4,0.1,0.7,0.1,1,0.1s0.4-0.1,0.7-0.1c1,0,2.1,0,3.3-0.1c1,0,2,0,3,0
		c0.7,0,1.3,0.1,1.7,0.6h0.9C478.4,22,478.6,27,475.2,27z"/>
	<path fill="#FFFFFF" d="M480.6,90.6c-0.1-2.4-0.1-4.9-0.1-7.3c-0.1-5-0.3-10-0.3-15c0-2.9,0.3-5.7,0.4-8.6c0.1-2.9,0.4-5.6,0.6-8.4
		c0.3-2.7,0.1-5.4,1-8c0.7-1.9,0.9-4,1.1-6c0.9-4.4,2.4-8.6,4.9-12.3c1.3-2,3.3-3.4,6-3.4c1.9,0,3.9,0.4,5.7,1
		c2,0.6,3.9,1.3,5.9,1.1c0.6,0,1,0.1,1.6,0.4c0.4,0.1,1,0.4,1.4,0.6c3.4,0.6,5.7,2.9,8.2,5.2c0.7,0.6,1.1,1.7,1.6,2.7
		c1,2.9,1.9,5.9,2.7,8.7c0.3,0.9,0.1,1.9,0.3,2.9c0,3.1,0,6.3-0.1,9.6c0,3.1-0.1,6.4-0.1,9.7c0,1.3,0.1,2.6,0.1,3.7
		c0.1,2.9,0.4,5.7,0.4,8.4c0,2.9,0,5.6-0.1,8.3c-0.3,3.3-0.4,6.6-0.9,9.9c-0.9,6.3-0.9,12.9-2.7,18.9c-0.3,1.1-1.1,2.1-1.3,3.4
		c-0.3,1.9-1.6,3.3-2.4,4.9c-1.4,3-3.4,5.4-6.6,6.6c-1.3,0.4-2.4,0.7-3.6,1.3c-1.6,0.7-3.4,0.7-5.2,0.3c-2.4-0.6-4.9-1.3-6.9-2.6
		c-3.1-1.9-5.9-4.3-7-8c-0.7-2.3-1.9-4.6-2.6-6.9c-0.4-1.7-0.3-3.4-0.6-5.2c0-0.4,0-0.7,0-1.1c0,0,0,0-0.1,0
		C481.5,100.5,481,95.6,480.6,90.6z M494.3,35.1c-1.1,4.1-2.1,8.4-2.9,12.7c-0.6,4.4-0.6,8.9-0.9,13.3c-0.4,6.9-0.9,13.9-0.1,20.9
		c0.1,2.1,0,4.4,0.1,6.7c0.1,2.7,0.3,5.4,0.6,8.2c0.3,2.6,0.9,5.2,0.9,7.7c0,2.3,0.4,4.4,0.9,6.6c0.1,1.3,0.6,2.4,0.7,3.6
		c0.3,2,1.3,3.7,2.4,5.3c1.4,2,4,2.7,5.6,1.3c1.6-1.6,3.1-3.3,4.1-5.2c2.3-3.7,3.1-8.2,3.9-12.4c0.9-5.3,1.4-10.6,1.9-15.9
		c0.4-5.4,1.1-10.9,0.6-16.5c-0.4-3.7-0.3-7.4-0.3-11.2c0-5,0-10.2,0.1-15.2c0.1-3.4-0.4-6.7-1.6-10c-0.4-1.4-1.4-2.9-2.1-4.1
		c-0.3-0.4-0.9-0.9-1.3-1c-1.7-0.1-3.4-0.7-4.9,0.4c-0.9,0.7-1.9,0.9-2.9,0.6c-0.7-0.3-1.6-0.3-2.4-0.6
		C495.9,32.1,494.8,33.4,494.3,35.1z"/>
	<path fill="#FFFFFF" d="M579.3,127.1c-1.4,0-3,0-4.6-0.1c-3.7,0-7.4-0.1-11,0c-3.9,0-3.9-5.9,0-6c1,0,2,0,3.1,0
		c-0.1-0.4-0.3-1-0.3-1.4c0-5.4,0-10.9,0.1-16.3c-0.7-1.4-1.3-3-1.9-4.6c-1.3-3.1-2.6-6.3-4-9.6c0,0,0,0-0.1-0.1
		c-0.1-0.3-0.4-0.6-0.7-0.9c-0.6-0.4-0.9-1.3-0.9-2c-0.6-3.4-1.9-6.6-3.1-9.7c-0.3-0.9-0.4-1.6-0.6-2.4c-0.3-0.7-0.3-1.4-0.6-2.1
		c-1.6-3-2.3-6.3-3.3-9.4c-0.9-3.1-2.1-6-3.1-9c-1-3.1-1.7-6.2-2.6-9.3c-0.3-0.9-0.6-1.9-1.1-2.7c-0.1,0.4-0.4,0.7-0.4,1.1
		c-0.1,5.9-0.4,11.6-0.4,17.3c0,3.6,0.3,7,0.3,10.6c0,6-0.1,12.2-0.4,18.3c0,3.3-0.6,6.7-0.7,10c0,2.3,0.1,4.6,0.1,7
		c0.1,1.7,0,3.4,0,5.3c-0.1,3.4-0.3,7,0.3,10.4c0.4,0,1,0,1.6,0c3.1-0.1,4,5.2,0.7,5.7c-3.9,0.6-7.9,1-11.9,1c-2.4,0-5,0.4-6.6-1.7
		c-1.4-2,0.6-4.3,2.4-4.4c0.1,0,0.1,0,0.1,0c0.6,0,1,0.1,1.4,0.4c0.1-0.1,0.4-0.1,0.6-0.1c0.4,0,0.7-0.1,1-0.1c0-0.3,0-0.4,0-0.7
		c0-3,0.3-6,0.3-9.2c0.1-5.6,0.1-11.2,0.3-16.7c0.1-3.9,0.6-7.7,0.9-11.6c0.4-8.7,0-17.5,0-26.2c0-5,0.3-9.9,0.4-14.9
		c0.1-4.7,0.1-9.6,0-14.5c0-0.6-0.1-1-0.1-1.6c-1.4,0-3,0-4.4-0.3c-1.4-0.1-2.6-1-2.6-2.6c0-1.1,0.7-2.4,1.9-2.6
		c2.9-0.6,6-0.4,9-0.1c1.4-0.1,2.7-0.1,4.1,0c0.3,0,0.4,0.1,0.7,0.1c2.4,0.1,3.6,0.9,4.6,3c1.6,4.1,3.4,8.2,5,12.2
		c0.7,1.6,1.1,3.1,1.6,4.7c1.9,6,3.3,12,5.3,17.9c1.7,5.4,4,10.9,6,16.3c0.1,0.3,0.3,0.6,0.4,1c0.1-0.1,0.3-0.1,0.4-0.1
		c0.1-5.3,0.4-10.4,0.7-15.7c0.1-4.3,0.4-8.6,0.6-13c0.1-5.3,0.1-10.6,0.3-15.9c0-2.4,0-4.9,0-7.3c-1,0-2-0.1-3-0.3c0,0,0,0-0.1,0
		c-0.1,0-0.4,0-0.7-0.1c-3.1-0.4-2.3-5.4,0.7-5.4c4.3,0,8.3,0.1,12.4,0.7c0.1,0,0.3,0,0.3,0c0.3,0,0.6,0,0.9,0c3.6,0,3.6,5.3,0,5.4
		c-0.3,0.1-0.6,0.1-1,0.1c-0.1,0-0.1,0-0.3,0c0.4,6.4,0.3,12.9,0.3,19.3c-0.1,6.2-0.6,12.3-0.9,18.5c-0.1,1.7-0.1,3.6-0.3,5.3
		c-0.1,5-0.4,9.9-0.6,14.7c0,1.7,0.3,3.4,0.3,5.2c0.1,3.7,0.3,7.3,0.3,11c0,5.7-0.1,11.4-0.3,17.2c0,1.7,0.3,3.4,0.4,5.2
		c0.9,0,1.9,0,2.7,0.1C583.2,121.4,583.2,127.1,579.3,127.1z"/>
	<path fill="#FFFFFF" d="M629.2,128c-0.1,0-0.4,0-0.6,0c-2,0.3-4,0.6-6,0.9c-2.3,0.3-4,0.4-5.7-1.1c-1.3-1.1-1-3,0-4
		c1-1.3,2.3-1.6,3.7-1.6c-0.1-0.3-0.1-0.7-0.3-1c-0.7-6.7-1.1-13.6-1.3-20.3c0-4.3-0.3-8.4-0.4-12.7c-1.4-0.6-2.6,0-4,0.3
		c-1.9,0.4-3.7,0.7-5.6,1c-1,0.1-1.6,0.9-1.7,1.9c-0.6,4.3-1.3,8.4-2.1,12.6c-0.6,3.1-1.4,6.4-2.1,9.6c-0.7,2.9-1.3,5.7-1.9,8.7
		c-0.1,0.9-0.3,1.7-0.7,2.6c0.4,0.1,0.9,0.1,1.3,0.3c2.6,0.6,2,4.6-0.6,4.6c-1.3,0-2.4-0.1-3.7-0.4c-3.4,0-7.2,0.7-10.4-0.3
		c-2-0.6-2-3.6,0-4.1c1-0.1,2-0.3,3-0.3c0.6-0.4,1.4-1.1,1.7-2c0.1-0.4,0.1-0.9,0.3-1.4c0.1-0.1,0.1-0.4,0.3-0.6
		c0-0.4,0.1-0.9,0.3-1.4c0.7-2.7,1.3-5.6,2-8.4c0.9-3.3,1.6-6.6,2.3-10c0.7-3.4,1.4-7,1.9-10.6c1.3-8.7,2.3-17.6,4.1-26.3
		c0.6-3,1.3-6,1.9-9.2c0.7-4.6,1.3-9.2,2-13.7c0.7-4,1.6-8.2,2.4-12.3c0.4-1.6,0.9-3.3,1.3-4.9c-1.1,0-2.1,0-3.3,0
		c-3.1,0-3.1-4.9,0-5c2.1-0.1,4.3-0.1,6.4-0.3c4.1-0.3,8.2-0.3,12.4,0.6c2.7,0.6,2,4.9-0.7,4.7c-0.7,0-1.3,0-2,0
		c0.4,4,0.7,8,1.1,12.2c0.7,8,1.4,16,2,24c0.3,4.1,0.3,8.2,0.4,12.3c0,4.7-0.1,9.6,0,14.3c0,6,0.1,11.9,0.3,17.9
		c0.1,3.3,0.9,6.6,1,9.9c0.3,2.7,0.4,5.4,0.4,8.3c0.4,0,1,0.1,1.4,0.3h0.1c1.6-0.1,2.3,0.9,2.4,2C633,126.4,631.3,128.4,629.2,128z
		 M618.7,69.2c0-3.7-0.1-7.4-0.4-11.2c-0.1-3.6-0.6-7.2-0.7-10.9c-0.1-3.6-0.1-7.3-1.1-10.7c-0.9,4.1-1.4,8.3-2,12.3
		c-0.9,5-1.7,10-2.6,15c-0.9,4.6-1.7,9.2-2.6,13.9c-0.1,1.4-0.3,2.9-0.4,4.6c3.3-0.7,6.3-1.3,9.9-2.1
		C618.9,76.5,618.8,72.9,618.7,69.2z"/>
	<path fill="#FFFFFF" d="M684.2,104.1c0,1-0.3,2.1-0.6,3.3c-0.3,2-0.9,4-1.1,6.2c-0.6,2.7-1.6,5.4-2.9,7.9c-0.7,1.4-2.3,2.4-3.1,3.9
		c-3,3.7-7.3,5.2-11.3,7.2c-1.6,0.7-3,1.6-4.7,1.3c-0.7-0.1-1.4-0.1-2.1-0.3c-1.1-0.3-2.3-0.6-3.7-0.3c-0.1,0-0.4,0-0.7,0
		c-3.6,0.6-7.7-0.4-11.3-0.7c-3.6-0.4-3.6-5.3,0-5.6c1.3-0.1,2.4-0.3,3.9,0c-0.3-1-0.4-2-0.4-3c0-1.1-0.1-2.1-0.3-3.3
		c0-2,0-4.1,0-6.2c0-2.3,0.3-4.4,0.3-6.7c0-3.3-0.1-6.7-0.1-10c0-3.9,0.3-7.7,0.4-11.4c0-3,0-6-0.1-9c-0.1-5.6,0.3-11,0.7-16.6
		c0.3-5.4,0.9-10.9,1.1-16.3c0.3-4.7,0.6-9.6,0.9-14.5c0.1-2.7,0.1-5.4,0.3-8.2c-0.9,0-1.9,0-2.7-0.1c-3.1-0.3-3.1-4.6,0-5
		c2.7-0.3,5.6-0.1,8.4,0c0.3-0.1,0.6-0.3,0.9-0.3c3.1,0.1,6.2,0.1,9.2,0.4c1.4,0.1,2.7,0.3,4.1,0.6c1.9,0.4,3.4,1.4,5.3,2.1
		c2.6,0.9,3.9,3.1,5.3,5.2c2.7,4.3,3.9,8.9,3.9,14c-0.1,4.9,0.3,50.1,0.4,54.4C684.2,96.6,684.2,100.4,684.2,104.1z M674.9,97.1
		c-0.1-3.9-0.7-53.8-0.6-56.4c0.3-2.1,0.4-4.4,0.3-6.6c0-1.6-0.4-3.1-0.7-4.7c-0.3-2.3-1.6-3.9-3.6-4.7c-4.1-1.7-8.4-2.1-12.7-1.1
		c0,0.9,0.1,1.6,0.1,2.3c-0.1,1.4-0.4,2.7-0.4,4c-0.1,3.3-0.3,6.6-0.4,9.9c0,0.6-0.1,1,0,1.6c0.9,3.6,0.3,7.2,0.1,10.7
		c-0.1,3.6-0.4,7.2-0.7,11.4c0-0.1,0.1,4.9,0.1,5.2c-0.1-0.1-0.7,1.6-0.7,2.4c0,7-0.1,14.2-0.1,21.2c0,3.7,0.1,7.3,0.1,11
		c0.1,3.3,0,6.4,0,9.7c0,2.9,0,5.7,0,8.7c0,0.9-0.1,1.9-0.3,2.9c0.7,0,1.3,0,1.9,0c3.4,0.4,8-1.4,10.2-4c1.4-1.4,2.3-3.3,3.6-4.9
		c1-1.4,1.4-2.7,1.9-4.3C674.2,106.7,675,101.9,674.9,97.1z"/>
	<path fill="#FFFFFF" d="M731.1,27.5c0.3,2.4,0.1,5-1.3,7.2c-0.3,0.6-0.9,1-1.4,1.1c-1.7,1-4.1-0.4-4.1-2.4c0-1.6,0.1-3.1,0.4-4.6
		c-1.9-0.3-3.9-0.3-5.7-0.4c-4.9-0.3-9.7-0.4-14.7-0.7c-0.9-0.1-1.6-0.1-1.6,0.9c0.3,1.3,0.7,2.6,0.9,3.9c0,5.3,0.1,10.7,0,16
		c-0.1,5-0.6,10-0.9,15c0,1,0,2,0,3.3c0.9,0,1.3,0,1.9,0c3-0.1,5.9-0.4,8.9-0.6c0.4-0.1,0.7-0.1,1,0c0-0.1,0-0.1,0-0.1
		c0-2.3,1.6-4,3.7-4.6h0.1c0.4-0.9,1.9-0.9,2.3,0c0.1,0.1,0.1,0.4,0.3,0.7c0.6,0.6,0.9,1.3,1,2c0.6,5.2-0.3,10.2-2.4,14.7
		c-1.1,2.4-5.3,1.3-5.2-1.4c0.1-1,0.3-1.9,0.4-2.9c-0.1-0.4-0.3-0.9-0.3-1.1c-3,0.3-6,0.7-9.2,0.1c-0.6-0.1-1.3,0-2.1,0
		c-0.1,1-0.3,2-0.3,3.1c0,10.2,0,20.3-0.1,30.5c0,4-0.3,8-0.4,12c0,0.6,0,1.1,0,2c2.6,0,4.9-0.4,7.2-0.7c3.4-0.6,6.9-1.4,10.6-1
		c-0.1-0.6-0.1-1.1,0-1.6c0-0.6,0-1,0.1-1.6c0-0.1-0.1-0.1-0.1-0.3s-0.1-0.4-0.1-0.6c-0.4-1.6,0.7-2.9,2.1-2.9c0.1,0,0.3,0,0.4,0
		c0.7-0.4,1.7-0.3,2.3,0.6c1.7,1,2.1,3.1,2.1,5.6c0,0.9-0.1,2.6-0.6,3.9c0.4,0.9,0.4,1.7-0.4,2.4c-1.3,1.1-2.9,1.4-4.6,1.4
		c-1.9,0.1-3.6,0-5.3,0.1c-1.9,0.1-3.7,0.7-5.6,1c-2.6,0.3-5.3,0.4-8,0.7c-1.3,0-2.7-0.3-4-0.7c-1.3,0.1-2.6,0.3-3.9,0.4
		c-1.9,0-3.7-0.3-5.6-0.6c-3.9-0.4-4-5.7,0-6c1.4-0.1,2.9-0.3,4.3-0.3c-0.1-2,0.1-4,0.3-6c0.3-3.1,0.6-6.2,0.7-9.3
		c0.1-3.6,0.1-7.2,0.3-10.9c0-1.9,0.1-3.7,0.1-5.6c0.1-4.4,0.3-9,0.4-13.6c0.1-5.2,0.1-10.4,0.4-15.6c0.4-5.7,1.1-11.3,1.6-17
		c0.1-2.4,0.1-4.9,0.1-7.3c0.1-3,0-6.2,0.1-9.2c0-0.4,0-0.9-0.1-1.1c-1.7,0.3-3.4,0.4-5.2,0.1c-1.1-0.1-2-1.4-2-2.6
		c0-1.3,0.9-2.1,2-2.6s2.3-0.3,3.4-0.3v-0.1c0.4-0.1,1.1-0.1,1.7,0c0.4,0,0.9,0,1.3,0c0.6,0,1,0,1.4,0.3c1.9,0.3,3.9,0.4,5.9,0.6
		c4.1,0.3,8.3,0.4,12.4,0.6c0.9,0,1.6,0,2.4,0c2.6-0.3,5,0.1,7.3,1.4c1.1,0,2.3,0.6,2.6,1.9C731.4,26,731.7,26.8,731.1,27.5z"/>
</g>
</svg>
